# xmcd
# 
# Track frame offsets:
#     150
#     19766
#     40912
#     54063
#     71835
#     93186
#     105007
#     125956
#     144164
#     166278
#     195822
# 
# Disc length: 2933
# 
# Revision: 1
# Processed by: cddbd v1.5.2PL0 Copyright (c) Steve Scherf et al.
# Submitted via: fre:ac v1.0.31
# 
DISCID=810b730b
DTITLE=Első pesti rackák-Russ Pahl - Kelet-Nyugat
DYEAR=2015
DGENRE=Folk/Rock
TTITLE0=Rajasthan
TTITLE1=Lassú D-dúr
TTITLE2=Vonat
TTITLE3=Pribil Gyuri emlkére
TTITLE4=Regölés
TTITLE5=Steel-verbunk
TTITLE6=Halmos Béla emlékére
TTITLE7=Csárdás
TTITLE8=Nashvissippi
TTITLE9=C-dúr saflé
TTITLE10=Lufivirágözön
EXTD=
EXTT0=
EXTT1=
EXTT2=
EXTT3=
EXTT4=
EXTT5=
EXTT6=
EXTT7=
EXTT8=
EXTT9=
EXTT10=
PLAYORDER=
